<svg width="100" height="100" viewBox="0 0 100 100" fill="none" xmlns="http://www.w3.org/2000/svg">
<g clip-path="url(#clip0_948_1314)">
<rect width="100" height="100" rx="22" fill="#0D5E91"/>
<path d="M14 43.16C14 41.4811 15.3611 40.12 17.04 40.12H41.36C43.0389 40.12 44.4 41.4811 44.4 43.16V43.92V46.96V53.04V55.7V56.08C44.4 57.7589 43.0389 59.12 41.36 59.12H17.04C15.3611 59.12 14 57.7589 14 56.08V43.16Z" fill="white"/>
<path d="M14 72.04C14 70.3611 15.3611 69 17.04 69H34.14H38.2674H41.36C43.0389 69 44.4 70.3611 44.4 72.04V72.4799V76.22V84.96C44.4 86.6389 43.0389 88 41.36 88H17.04C15.3611 88 14 86.6389 14 84.96V72.04Z" fill="white"/>
<path d="M41.36 46.96H44.4H48.2H56.4636H59.6H62.64V53.04H59.6H56.18H48.2H44.4H41.36V46.96Z" fill="white"/>
<path d="M36.04 77.3066L44.4 72.4799L47.44 70.7248L65.1959 60.4734L67.5401 59.12L68.9509 58.3054L65.9109 53.04L59.6538 56.6525L56.3314 58.5707L41.2713 67.2657L38.2674 69L33 72.0411L36.04 77.3066Z" fill="white"/>
<path d="M41.36 12H17.04C15.3611 12 14 13.3611 14 15.04V27.96C14 29.6389 15.3611 31 17.04 31H33.76H37.0436L39.84 32.6145L56.4636 42.2121L59.6 44.023V43.16C59.6 41.4811 60.9611 40.12 62.64 40.12H64.9999L61.4216 38.0541L47.8872 30.24L44.389 28.2203C44.3963 28.1345 44.4 28.0477 44.4 27.96V24.92V15.04C44.4 13.3611 43.0389 12 41.36 12Z" fill="white"/>
<path d="M37.0436 31H33.76C36.2755 31.0281 37.6478 31.4042 39.84 32.6145L37.0436 31Z" fill="white"/>
<path d="M44.4 27.96C44.4 28.0477 44.3963 28.1345 44.389 28.2203L47.8872 30.24C45.2128 28.6713 44.4548 27.5044 44.4 24.92V27.96Z" fill="white"/>
<path d="M56.4636 46.96H59.6V45.44C59.5536 46.716 58.6788 46.9404 56.4636 46.96Z" fill="white"/>
<path d="M59.6 44.023L56.4636 42.2121C58.5933 43.4882 59.5223 44.1972 59.6 45.44V44.023Z" fill="white"/>
<path d="M61.4216 38.0541L64.9999 40.12H68.72C66.4201 40.068 63.3042 39.0792 61.4216 38.0541Z" fill="white"/>
<path d="M44.4 46.96H48.2C45.4975 46.8824 44.4836 46.3936 44.4 43.92V46.96Z" fill="white"/>
<path d="M48.2 53.04H44.4V55.7C44.4479 53.8043 45.166 53.1509 48.2 53.04Z" fill="white"/>
<path d="M59.6 53.04H56.18C58.4373 53.0931 59.5043 53.236 59.6 54.56V53.04Z" fill="white"/>
<path d="M59.6538 56.6525C59.6185 56.4671 59.6 56.2757 59.6 56.08V54.94C59.5534 56.5444 58.4269 57.2859 56.3314 58.5707L59.6538 56.6525Z" fill="white"/>
<path fill-rule="evenodd" clip-rule="evenodd" d="M62.64 40.12C60.9611 40.12 59.6 41.4811 59.6 43.16V44.023L65.9109 47.6666L68.9509 42.4011L64.9999 40.12H62.64ZM67.5401 59.12L68.9509 58.3054L65.9109 53.04L59.6538 56.6525C59.9216 58.0578 61.1568 59.12 62.64 59.12H67.5401ZM59.6 46.96V53.04H62.64V46.96H59.6Z" fill="white"/>
<path d="M90 56.08V43.16C90 41.4811 88.6389 40.12 86.96 40.12H68.72H64.9999L68.9509 42.4011L65.9109 47.6666L59.6 44.023V45.44V46.96H62.64V53.04H59.6V54.56V54.94V56.08C59.6 56.2757 59.6185 56.4671 59.6538 56.6525L65.9109 53.04L68.9509 58.3054L67.5401 59.12H70.24H86.96C88.6389 59.12 90 57.7589 90 56.08Z" fill="white"/>
<path d="M65.1959 60.4734C66.8849 59.5741 67.9152 59.1826 70.24 59.12H67.5401L65.1959 60.4734Z" fill="white"/>
<path d="M47.44 70.7248L44.4 72.4799V76.22C44.4653 73.4447 45.0394 72.1962 47.44 70.7248Z" fill="white"/>
<path d="M34.14 69H38.2674L41.2713 67.2657C38.8387 68.5778 37.2461 68.9348 34.14 69Z" fill="white"/>
</g>
<defs>
<clipPath id="clip0_948_1314">
<rect width="100" height="100" fill="white"/>
</clipPath>
</defs>
</svg>
